<?xml version="1.0" standalone="no"?>
<!DOCTYPE svg PUBLIC "-//W3C//DTD SVG 20010904//EN"
 "http://www.w3.org/TR/2001/REC-SVG-20010904/DTD/svg10.dtd">
<svg version="1.0" xmlns="http://www.w3.org/2000/svg"
 width="361.000000pt" height="125.000000pt" viewBox="0 0 361.000000 125.000000"
 preserveAspectRatio="xMidYMid meet">

<g transform="translate(0.000000,125.000000) scale(0.100000,-0.100000)"
fill="#000000" stroke="none">
<path d="M897 1243 c496 -2 1310 -2 1810 0 499 1 94 2 -902 2 -996 0 -1404 -1
-908 -2z"/>
<path d="M155 1205 c-64 -17 -109 -67 -124 -136 -15 -69 -15 -791 0 -861 15
-71 67 -122 139 -137 73 -16 3188 -15 3262 0 71 15 122 67 137 139 15 70 15
791 0 862 -15 71 -67 122 -139 137 -82 18 -3209 14 -3275 -4z m1605 -225 c-6
-11 -20 -20 -32 -20 -20 0 -21 1 -3 20 10 11 24 20 32 20 11 0 11 -4 3 -20z
m520 -85 c0 -57 -4 -95 -10 -95 -6 0 -10 38 -10 95 0 57 4 95 10 95 6 0 10
-38 10 -95z m840 0 c0 -78 -3 -95 -15 -95 -12 0 -15 17 -15 95 0 78 3 95 15
95 12 0 15 -17 15 -95z m-2425 49 c-12 -66 -61 -114 -115 -114 -17 0 -19 4
-14 28 13 54 35 84 77 103 57 25 60 24 52 -17z m509 14 c9 -12 16 -26 16 -30
0 -13 -20 -9 -36 7 -22 21 -61 19 -74 -4 -19 -36 -12 -79 16 -98 21 -13 29
-14 43 -5 44 32 68 25 33 -10 -25 -26 -86 -28 -109 -5 -35 35 -33 125 4 153
29 22 89 18 107 -8z m150 -39 c51 -40 25 -119 -40 -119 -62 0 -88 80 -38 119
15 12 32 21 39 21 7 0 24 -9 39 -21z m86 12 c0 -5 14 -4 31 2 27 11 32 10 45
-7 20 -28 19 -126 -1 -126 -11 0 -15 12 -15 50 0 36 -4 52 -15 56 -26 10 -45
-16 -45 -62 0 -32 -4 -44 -15 -44 -12 0 -15 14 -15 63 0 35 3 67 7 70 9 10 23
9 23 -2z m218 -3 c21 -21 13 -29 -24 -22 -47 9 -43 -16 4 -28 34 -9 50 -41 32
-63 -17 -20 -89 -20 -97 0 -8 22 4 30 21 16 17 -14 47 -11 46 4 0 6 -15 15
-33 21 -22 7 -33 18 -35 34 -6 40 56 68 86 38z m82 -58 c0 -56 -3 -70 -15 -70
-12 0 -15 14 -15 63 0 35 3 67 7 70 17 18 23 1 23 -63z m121 60 c13 -7 19 -7
19 0 0 5 5 10 10 10 15 0 13 -163 -2 -178 -18 -18 -87 -15 -95 3 -8 23 2 28
25 14 23 -14 52 -6 52 15 0 12 -7 14 -28 10 -39 -8 -62 17 -62 66 0 29 6 43
22 54 26 19 33 19 59 6z m109 -39 c0 -90 56 -93 62 -3 2 25 9 47 16 50 9 3 12
-15 12 -66 l0 -69 -50 -2 c-39 0 -52 3 -60 19 -11 21 -14 103 -3 113 16 17 23
4 23 -42z m223 37 c9 -7 19 -25 23 -40 6 -28 6 -28 -45 -28 -40 0 -49 -3 -45
-15 8 -19 43 -30 57 -16 15 15 27 14 27 -3 0 -17 -21 -26 -60 -26 -33 0 -48
15 -56 58 -11 55 56 102 99 70z m232 -13 c45 -44 22 -115 -37 -115 -41 0 -68
25 -68 64 0 36 7 48 35 64 30 17 43 15 70 -13z m223 9 c12 -8 22 -26 22 -40 0
-22 -4 -24 -45 -24 -32 0 -45 -4 -45 -14 0 -20 35 -29 60 -16 26 14 37 6 20
-15 -16 -20 -74 -19 -95 1 -26 26 -16 95 15 111 33 16 41 16 68 -3z m162 1 c6
-8 14 -39 17 -69 5 -48 3 -56 -11 -56 -12 0 -16 10 -16 44 0 46 -19 72 -45 62
-11 -4 -15 -20 -15 -56 0 -38 -4 -50 -15 -50 -12 0 -15 14 -15 68 l0 67 44 2
c27 1 49 -4 56 -12z m217 0 c11 -8 23 -26 25 -40 5 -24 3 -25 -43 -25 -51 0
-60 -8 -34 -30 12 -10 21 -10 42 -1 30 14 41 8 23 -14 -19 -23 -76 -19 -94 7
-17 24 -21 65 -8 84 9 13 43 33 57 34 6 0 20 -7 32 -15z m-2496 -120 c40 -14
49 -14 88 0 59 20 110 19 149 -5 43 -26 48 -44 22 -70 -28 -28 -40 -62 -40
-112 0 -34 6 -47 40 -80 22 -22 40 -45 40 -52 0 -21 -59 -114 -86 -135 -30
-24 -68 -26 -125 -9 -31 9 -51 8 -97 -3 -31 -7 -64 -12 -72 -10 -29 6 -72 57
-106 126 -75 152 -49 302 61 351 40 18 72 17 126 -1z m766 -280 c34 -93 62
-178 62 -188 1 -14 -5 -18 -26 -15 -23 2 -30 11 -42 51 l-15 47 -72 0 -72 0
-13 -37 c-6 -21 -16 -44 -22 -50 -13 -17 -57 -17 -57 0 0 11 45 138 125 355 3
8 17 12 37 10 33 -3 33 -3 95 -173z m1049 141 c44 -44 46 -76 4 -76 -20 0 -30
5 -30 15 0 24 -45 47 -86 43 -30 -2 -42 -9 -54 -30 -13 -25 -13 -29 1 -43 8
-8 45 -24 83 -34 103 -29 144 -83 116 -152 -25 -60 -150 -90 -220 -54 -28 14
-60 60 -60 85 0 21 49 9 78 -20 39 -39 92 -41 127 -5 14 13 25 28 25 33 0 20
-41 43 -106 62 -80 22 -114 53 -114 104 0 37 31 83 64 96 11 5 47 9 80 9 53 1
61 -2 92 -33z m164 -36 c0 -25 4 -30 25 -30 20 0 25 -5 25 -25 0 -20 -5 -25
-25 -25 l-26 0 3 -87 c3 -83 4 -88 26 -91 16 -3 22 -10 22 -28 0 -18 -5 -24
-22 -24 -72 1 -88 26 -88 145 0 78 -2 85 -20 85 -15 0 -20 7 -20 25 0 18 5 25
20 25 16 0 20 7 20 30 0 27 3 30 30 30 27 0 30 -3 30 -30z m-1050 -51 l0 -20
26 20 c54 42 131 18 158 -49 33 -82 10 -171 -50 -196 -46 -19 -77 -17 -108 7
l-26 20 0 -65 0 -66 -30 0 -30 0 0 185 0 185 30 0 c24 0 30 -4 30 -21z m300 0
l0 -20 26 20 c54 42 131 18 158 -49 33 -82 10 -171 -50 -196 -46 -19 -77 -17
-107 6 l-26 21 -3 -63 c-3 -60 -4 -63 -30 -66 l-28 -3 0 185 0 186 30 0 c24 0
30 -4 30 -21z m1051 -17 c54 -60 47 -170 -12 -215 -33 -24 -106 -32 -139 -15
-89 48 -94 208 -7 252 51 26 124 16 158 -22z m139 22 c0 -14 2 -14 22 0 36 26
58 21 58 -13 0 -24 -4 -28 -19 -24 -11 3 -28 -4 -40 -16 -18 -18 -21 -33 -21
-116 l0 -95 -30 0 -30 0 0 140 0 140 30 0 c20 0 30 -5 30 -16z m300 -11 c21
-20 33 -42 39 -75 l8 -47 -95 -3 c-106 -3 -119 -12 -78 -53 31 -31 76 -33 101
-5 20 22 65 27 65 7 0 -18 -39 -53 -73 -66 -94 -36 -170 24 -170 134 0 61 14
90 56 115 48 30 110 26 147 -7z"/>
<path d="M1290 896 c-15 -19 -9 -56 12 -69 34 -22 66 41 36 71 -16 16 -33 15
-48 -2z"/>
<path d="M1814 896 c-11 -29 1 -61 24 -64 26 -4 45 33 30 61 -11 21 -46 23
-54 3z"/>
<path d="M2137 904 c-15 -15 -6 -24 24 -24 20 0 29 4 27 13 -5 14 -40 21 -51
11z"/>
<path d="M2354 883 c-8 -31 6 -58 32 -58 25 0 42 48 24 69 -20 25 -49 20 -56
-11z"/>
<path d="M2587 904 c-15 -15 -6 -24 24 -24 20 0 29 4 27 13 -5 14 -40 21 -51
11z"/>
<path d="M2966 895 c-4 -12 3 -15 31 -15 30 0 34 2 23 15 -7 8 -20 15 -30 15
-10 0 -20 -7 -24 -15z"/>
<path d="M1180 565 c-13 -39 -25 -76 -28 -82 -3 -9 10 -13 47 -13 60 0 60 0
28 95 l-24 70 -23 -70z"/>
<path d="M1480 518 c-35 -57 -22 -120 27 -139 35 -13 60 -3 78 31 23 44 19 87
-10 115 -35 36 -71 33 -95 -7z"/>
<path d="M1780 518 c-28 -46 -26 -93 5 -123 37 -38 76 -32 100 16 23 43 19 86
-10 114 -35 36 -71 33 -95 -7z"/>
<path d="M2684 542 c-40 -26 -46 -117 -11 -150 35 -33 73 -29 97 11 26 41 25
87 -1 121 -20 26 -61 35 -85 18z"/>
<path d="M3127 532 c-31 -34 -21 -42 48 -42 65 0 66 0 54 23 -7 12 -17 25 -23
29 -20 14 -63 8 -79 -10z"/>
</g>
</svg>
